# xmcd
#
# Track frame offsets:
#	150
#	12402
#	24355
#	37855
#	51280
#	66947
#	79522
#	92870
#	107670
#	118917
#	131755
#	145512
#	159675
#	171967
#	183537
#	195615
#	207727
#	224572
#
# Disc length: 3128
#
# Revision: 3
# Processed by: cddbd v1.5.1PL0 Copyright (c) Steve Scherf et al.
# Submitted via: DiscPlay 3.4.1
# Normalized: r1:TDELIM( - ),TSWAP
#
DISCID=090c3612
DTITLE=Disk One - Rhythm and Blues Legends
DYEAR=1900
DGENRE=
TTITLE0=Johnny Otis - Willy and the hand jive
TTITLE1=Louis Jordan - Let the good times roll
TTITLE2=Joe Turner - Shake rattle and roll
TTITLE3=Joe Liggins and The Honeydrippers - The honeydripper part 1
TTITLE4=Eddie 'cleanhead' Vinson - Kidney Stew
TTITLE5=Howlin' Wolf - Spoonful
TTITLE6=John Lee Hooker - One Bourbon, one Scotch, one beer
TTITLE7=Pee Wee Crayton - Texas hop
TTITLE8=Amos Milburn - Bad whiskey
TTITLE9=Muddy Waters - I'm your hoochie coochie man
TTITLE10=Roy Milton - R.M. Blues
TTITLE11=Sonny Boy Williamson - Help Me
TTITLE12=Louis Jordan - Caledonia (Caledonia Boogie)
TTITLE13=Little Walter - My babe
TTITLE14=Little Milton - We're gonna make it
TTITLE15=Charles Brown - Trouble Blues
TTITLE16=Bishop Gatemouth Moore - Goin' down slow
TTITLE17=Richard Berry - Louie Louie
EXTD=
EXTT0=
EXTT1=
EXTT2=
EXTT3=
EXTT4=
EXTT5=
EXTT6=
EXTT7=
EXTT8=
EXTT9=
EXTT10=
EXTT11=
EXTT12=
EXTT13=
EXTT14=
EXTT15=
EXTT16=
EXTT17=
PLAYORDER=
